<svg width="32" height="32" viewBox="0 0 32 32" fill="none" xmlns="http://www.w3.org/2000/svg">
<style>
  @media (prefers-color-scheme: light) {
    .fill-color { fill: #0F172A; }
    .stroke-color { stroke: #0F172A; }
  }
  @media (prefers-color-scheme: dark) {
    .fill-color { fill: #F1F5F9; }
    .stroke-color { stroke: #F1F5F9; }
  }
</style>
<path class="fill-color" d="M10.9565 16.5714C10.9565 17.3604 10.2947 18 9.47826 18C8.66184 18 8 17.3604 8 16.5714C8 15.7825 8.66184 15.1429 9.47826 15.1429C10.2947 15.1429 10.9565 15.7825 10.9565 16.5714Z"/>
<circle class="fill-color" cx="15" cy="9" r="2"/>
<circle class="fill-color" cx="22.5" cy="19.5" r="1.5"/>
<path class="stroke-color" fill-rule="evenodd" clip-rule="evenodd" d="M28.9383 7.79058C28.5712 9.60156 26.9155 10.7943 25.2402 10.4547C23.5649 10.1151 22.5044 8.37166 22.8716 6.56068C23.2387 4.7497 24.8944 3.55694 26.5697 3.89656C27.3742 4.05966 28.0757 4.56155 28.5199 5.29181C28.9641 6.02208 29.1146 6.92092 28.9383 7.79058Z" stroke-width="0.5" stroke-linecap="round" stroke-linejoin="round"/>
<path class="stroke-color" fill-rule="evenodd" clip-rule="evenodd" d="M26.3383 7.26352C26.2858 7.52224 26.0493 7.69263 25.81 7.64411C25.5706 7.59559 25.4192 7.34654 25.4716 7.08782C25.5241 6.8291 25.7606 6.65872 25.9999 6.70723C26.2392 6.75575 26.3907 7.0048 26.3383 7.26352Z" stroke-width="0.5" stroke-linecap="round" stroke-linejoin="round"/>
<path class="stroke-color" d="M24.1716 6.82419C24.3814 5.78935 25.3275 5.10777 26.2848 5.30184" stroke-width="0.5" stroke-linecap="round"/>
<path class="stroke-color" d="M7 27.0178H9.16667M9.16667 27.0178H13M9.16667 27.0178L10.8333 25.1428M10.8333 25.1428H11.9333C12.2822 25.1428 12.4681 25.1428 12.6074 25.2095M10.8333 25.1428H8.06667C7.6933 25.1428 7.50661 25.1428 7.36401 25.2246C7.23856 25.2965 7.13658 25.4112 7.07266 25.5523C7 25.7128 7 25.9228 7 26.3428V29.9428C7 30.3629 7 30.5729 7.07266 30.7333C7.13658 30.8744 7.23856 30.9892 7.36401 31.0611C7.50661 31.1428 7.6933 31.1428 8.06667 31.1428H11.9333C12.3067 31.1428 12.4934 31.1428 12.636 31.0611C12.7614 30.9892 12.8634 30.8744 12.9273 30.7333C13 30.5729 13 30.3629 13 29.9428V26.3428C13 25.9228 13 25.7128 12.9273 25.5523C12.8634 25.4112 12.7614 25.2965 12.636 25.2246C12.6267 25.2192 12.6171 25.2142 12.6074 25.2095M12.6074 25.2095L11 27.0179M9 25.1428L7.33333 27.0178M11 29.0803L9.33333 30.2053V27.9553L11 29.0803Z" stroke-width="0.5" stroke-linejoin="round"/>
<path class="stroke-color" d="M9.5 16.5L15 9L8 6" stroke-width="0.5"/>
<path class="stroke-color" d="M15 9L23 8.5" stroke-width="0.5"/>
<path class="stroke-color" d="M9.5 16.5L10 25" stroke-width="0.5"/>
<path class="stroke-color" d="M9.5 16.5L22.5 19.5" stroke-width="0.5"/>
<path class="stroke-color" d="M2.32118 6.26073L3.87736 2.28799C4.01354 1.94034 4.08163 1.76651 4.19708 1.65858C4.29862 1.56363 4.42484 1.50354 4.55766 1.48692C4.70864 1.46803 4.8716 1.53186 5.19752 1.65953L7.99086 2.75373C8.31678 2.88139 8.47975 2.94523 8.57773 3.06165C8.66391 3.16405 8.71575 3.29389 8.72578 3.43254C8.7372 3.59017 8.66911 3.764 8.53293 4.11164L7.21989 7.46365L3.14628 5.86795C2.82488 5.74205 2.45547 5.9179 2.32118 6.26073ZM2.32118 6.26073C2.18688 6.60357 2.33857 6.98354 2.65997 7.10943L6.73359 8.70513M5.23497 3.10618L6.9808 3.79005M4.74866 4.34766L6.49449 5.03153M6.92892 7.34967L6.44261 8.59116" stroke-width="0.5" stroke-linecap="round" stroke-linejoin="round"/>
</svg>
